#!OML:ASF I:\Actors\actors\Patient Classification 1\Patient 1\Session 1\Subject1.ASF
:FULLY-SPECIFIED
:DEGREES
287
root -0.11999 17.6146 8.55901 14.9608 13.9886 -11.3365
lowerback 12.0417 0.571791 5.88608
upperback -9.63186 2.10368 0.536437
thorax -17.7117 0.284121 -3.25898
lowerneck -19.0168 -7.35851 -3.97274
upperneck 23.3793 -11.8916 9.77979
head 11.6735 -4.52369 2.34824
rclavicle 2.40032e-014 -1.11319e-014
rhumerus -38.8556 -42.3464 3.70634
rradius 41.6846
rwrist 39.6563
rhand -28.7182 -47.1469
rfingers 7.12502
rthumb -2.07952 -77.1165
lclavicle 2.40032e-014 -1.11319e-014
lhumerus -16.5757 44.8088 12.8422
lradius 46.3926
lwrist -12.4664
lhand -48.7212 -41.6605
lfingers 7.12502
lthumb -21.3612 -12.8179
rfemur -8.87267 23.7835 25.8782
rtibia 0.621895
rfoot -17.7244 -33.9209
rtoes 14.0728
lfemur -13.5319 -50.9416 8.16763
ltibia -4.35411
lfoot -11.3945 53.1436
ltoes -0.0644957
288
root -0.117449 17.6136 8.55142 14.998 14.0331 -11.3596
lowerback 12.3613 0.640623 6.24044
upperback -9.78058 2.25791 0.231161
thorax -18.0829 0.262432 -3.86607
lowerneck -18.8693 -7.50387 -3.98509
upperneck 23.4846 -12.1711 9.98334
head 11.7263 -4.62573 2.38164
rclavicle 3.71727e-014 4.77083e-015
rhumerus -39.7875 -41.8516 3.56001
rradius 41.3414
rwrist 39.4558
rhand -28.2605 -46.762
rfingers 7.12502
rthumb -1.63751 -76.7355
lclavicle 3.71727e-014 4.77083e-015
lhumerus -15.9329 44.1213 13.3605
lradius 46.0917
lwrist -12.263
lhand -48.487 -40.7933
lfingers 7.12502
lthumb -21.1363 -11.9254
rfemur -8.98283 23.6758 25.8608
rtibia 0.669916
rfoot -17.7172 -33.8704
rtoes 13.9022
lfemur -13.6993 -50.8551 8.29627
ltibia -4.30568
lfoot -11.643 53.0362
ltoes 0.191928
289
root -0.115245 17.6131 8.5438 15.028 14.0442 -11.3626
lowerback 12.4754 0.699139 6.2937
upperback -9.78596 2.34073 0.113811
thorax -18.1503 0.278389 -4.05936
lowerneck -18.8115 -7.58987 -4.03533
upperneck 23.4932 -12.3028 10.0597
head 11.7392 -4.68142 2.39667
rclavicle -4.2192e-014 -2.62396e-014
rhumerus -40.3251 -41.831 3.36249
rradius 40.9393
rwrist 39.3382
rhand -27.7946 -46.377
rfingers 7.12502
rthumb -1.18752 -76.3534
lclavicle -4.2192e-014 -2.62396e-014
lhumerus -15.6768 43.7856 13.7987
lradius 45.9189
lwrist -12.1568
lhand -48.1627 -40.0876
lfingers 7.12502
lthumb -20.8247 -11.1851
rfemur -9.09353 23.5472 25.8234
rtibia 0.734858
rfoot -17.6218 -33.7814
rtoes 13.6274
lfemur -13.8227 -50.7503 8.3653
ltibia -4.26865
lfoot -11.7157 52.9325
ltoes 0.297926
290
root -0.113125 17.613 8.5368 15.0351 14.0505 -11.3649
lowerback 12.4059 0.70226 6.05456
upperback -9.65821 2.29629 0.205342
thorax -17.9509 0.308206 -3.80142
lowerneck -18.904 -7.57225 -4.01093
upperneck 23.5515 -12.2349 9.87102
head 11.7563 -4.66652 2.33283
rclavicle -7.65321e-015 1.03368e-014
rhumerus -40.3098 -42.2049 2.95602
rradius 40.4664
rwrist 39.4658
rhand -27.8172 -45.7757
rfingers 7.12502
rthumb -1.20936 -75.752
lclavicle -7.65321e-015 1.03368e-014
lhumerus -15.9593 43.9333 13.9203
lradius 45.6638
lwrist -12.5132
lhand -47.87 -39.9565
lfingers 7.12502
lthumb -20.5435 -11.0235
rfemur -9.14757 23.5386 25.7925
rtibia 0.779698
rfoot -17.6486 -33.7436
rtoes 13.8299
lfemur -13.893 -50.7457 8.4118
ltibia -4.25707
lfoot -11.6446 52.9322
ltoes 0.237919
291
root -0.109875 17.6127 8.52912 15.0383 14.0578 -11.397
lowerback 12.1311 0.656223 5.58468
upperback -9.39458 2.14707 0.506919
thorax -17.465 0.350483 -3.13532
lowerneck -19.1099 -7.43059 -3.95515
upperneck 23.5406 -11.9422 9.52681
head 11.7356 -4.56642 2.24209
rclavicle -1.35671e-014 8.74653e-015
rhumerus -39.6969 -42.7997 2.22225
rradius 40.0064
rwrist 39.7554
rhand -27.5971 -45.4518
rfingers 7.12502
rthumb -0.996815 -75.4292
lclavicle -1.35671e-014 8.74653e-015
lhumerus -16.6909 44.4574 13.7901
lradius 45.3063
lwrist -12.9763
lhand -47.6592 -40.0328
lfingers 7.12502
lthumb -20.3409 -11.078
rfemur -9.20167 23.6403 25.7813
rtibia 0.82347
rfoot -17.8048 -33.7786
rtoes 14.3158
lfemur -13.9701 -50.7234 8.49135
ltibia -4.23882
lfoot -11.7187 52.9118
ltoes 0.408411
292
root -0.105616 17.6117 8.52068 15.0627 14.0675 -11.432
lowerback 12.1177 0.695107 5.56728
upperback -9.33437 2.19238 0.504402
thorax -17.3747 0.377159 -3.13915
lowerneck -19.1758 -7.45618 -4.01832
upperneck 23.6831 -11.9726 9.51938
head 11.8093 -4.57824 2.2434
rclavicle 3.74709e-014 -6.36111e-015
rhumerus -39.9415 -42.8292 1.859
rradius 39.7785
rwrist 39.8779
rhand -27.0675 -45.2057
rfingers 7.12502
rthumb -0.485259 -75.1849
lclavicle 3.74709e-014 -6.36111e-015
lhumerus -16.6845 44.2735 14.0399
lradius 44.8862
lwrist -12.9525
lhand -47.3918 -38.9116
lfingers 7.12502
lthumb -20.0839 -9.92962
rfemur -9.29965 23.6382 25.7648
rtibia 0.859917
rfoot -17.7512 -33.8036
rtoes 14.1116
lfemur -14.1433 -51.023 8.7238
ltibia -4.03114
lfoot -14.9528 52.687
ltoes 4.77948
293
root -0.101977 17.6103 8.51407 15.0945 14.0796 -11.4625
lowerback 12.414 0.807544 5.9617
upperback -9.50937 2.4122 0.192149
thorax -17.7515 0.381771 -3.79298
lowerneck -19.0425 -7.63518 -4.058
upperneck 23.9831 -12.306 9.68627
head 11.9436 -4.70215 2.25913
rclavicle -9.24349e-015 1.98785e-014
rhumerus -41.0583 -42.3319 1.86688
rradius 39.7308
rwrist 39.7942
rhand -26.7794 -44.8027
rfingers 7.12502
rthumb -0.207 -74.7823
lclavicle -9.24349e-015 1.98785e-014
lhumerus -16.0626 43.3768 14.5689
lradius 44.4866
lwrist -12.5179
lhand -47.0882 -37.3186
lfingers 7.12502
lthumb -19.7921 -8.30625
rfemur -9.3883 23.4943 25.7648
rtibia 0.877632
rfoot -17.5231 -33.7514
rtoes 13.4669
lfemur -14.3159 -51.4161 8.97443
ltibia -3.83724
lfoot -18.079 52.4504
ltoes 8.83483
294
root -0.0990466 17.6096 8.50881 15.1126 14.0934 -11.4872
lowerback 12.4956 0.869062 6.04756
upperback -9.52893 2.50791 0.0995698
thorax -17.8137 0.402614 -3.9778
lowerneck -18.9512 -7.68227 -3.98829
upperneck 24.0591 -12.3773 9.59181
head 11.948 -4.73972 2.20383
rclavicle 1.63003e-014 -3.18055e-014
rhumerus -41.5778 -42.2075 1.61847
rradius 39.6158
rwrist 39.6586
rhand -26.6393 -44.6107
rfingers 7.12502
rthumb -0.0717347 -74.5904
lclavicle 1.63003e-014 -3.18055e-014
lhumerus -15.9755 43.0098 14.8898
lradius 44.1722
lwrist -12.3263
lhand -46.7846 -36.5638
lfingers 7.12502
lthumb -19.5002 -7.52168
rfemur -9.43448 23.4328 25.7675
rtibia 0.876611
rfoot -17.4252 -33.7418
rtoes 13.3285
lfemur -14.355 -51.0681 8.93252
ltibia -3.99304
lfoot -15.0327 52.75
ltoes 4.80994
295
root -0.0964201 17.6093 8.5039 15.1067 14.1209 -11.4792
lowerback 12.4954 0.89936 5.97745
upperback -9.46787 2.53097 0.0961506
thorax -17.7333 0.425936 -3.94713
lowerneck -18.9173 -7.67426 -3.97388
upperneck 24.0613 -12.3471 9.51592
head 11.932 -4.73559 2.17994
rclavicle 6.90777e-015 -1.11319e-014
rhumerus -41.8542 -42.1934 1.26917
rradius 39.488
rwrist 39.4994
rhand -26.5036 -44.5397
rfingers 7.12502
rthumb 0.0593065 -74.5195
lclavicle 6.90777e-015 -1.11319e-014
lhumerus -16.1129 43.0347 15.1162
lradius 43.8026
lwrist -12.6615
lhand -46.55 -35.7046
lfingers 7.12502
lthumb -19.2746 -6.6398
rfemur -9.42802 23.5541 25.737
rtibia 0.865102
rfoot -17.5313 -33.8766
rtoes 13.5517
lfemur -14.3562 -50.6609 8.80492
ltibia -4.13526
lfoot -11.7841 52.8446
ltoes 0.596652
